<mxfile host="app.diagrams.net" modified="2024-06-17T03:46:56.837Z" agent="Mozilla/5.0 (Windows NT 10.0; Win64; x64) AppleWebKit/537.36 (KHTML, like Gecko) Chrome/125.0.0.0 Safari/537.36" etag="8Yua9qBZUmeN2Or5_Et9" version="24.5.4" type="github">
  <diagram name="第 1 页" id="Xhv4VDSsPqRPGNAzkeZY">
    <mxGraphModel dx="1677" dy="833" grid="1" gridSize="10" guides="1" tooltips="1" connect="1" arrows="1" fold="1" page="1" pageScale="1" pageWidth="2339" pageHeight="3300" math="0" shadow="0">
      <root>
        <mxCell id="0" />
        <mxCell id="1" parent="0" />
        <mxCell id="tHSjwurjkYHsTCEM8UBL-1" value="" style="shape=mxgraph.cisco.switches.atm_switch;sketch=0;html=1;pointerEvents=1;dashed=0;fillColor=#036897;strokeColor=#ffffff;strokeWidth=2;verticalLabelPosition=bottom;verticalAlign=top;align=center;outlineConnect=0;" parent="1" vertex="1">
          <mxGeometry x="370" y="1570" width="40" height="36" as="geometry" />
        </mxCell>
        <mxCell id="tHSjwurjkYHsTCEM8UBL-27" value="" style="shape=mxgraph.rack.ibm.ibm_x3630_m3;html=1;labelPosition=right;align=left;spacingLeft=15;dashed=0;shadow=0;fillColor=#ffffff;" parent="1" vertex="1">
          <mxGeometry x="370" y="1780" width="80" height="30" as="geometry" />
        </mxCell>
        <mxCell id="4363vgner7lVVPfS3MCY-50" style="rounded=0;orthogonalLoop=1;jettySize=auto;html=1;exitX=0.25;exitY=0;exitDx=0;exitDy=0;startArrow=none;startFill=0;strokeWidth=1;endArrow=none;endFill=0;strokeColor=#FF8000;" edge="1" parent="1" source="4363vgner7lVVPfS3MCY-2" target="tHSjwurjkYHsTCEM8UBL-1">
          <mxGeometry relative="1" as="geometry" />
        </mxCell>
        <mxCell id="4363vgner7lVVPfS3MCY-2" value="" style="rounded=0;whiteSpace=wrap;html=1;fillColor=#008a00;strokeColor=#005700;fontColor=#ffffff;" vertex="1" parent="1">
          <mxGeometry x="370" y="1760" width="10" height="20" as="geometry" />
        </mxCell>
        <mxCell id="4363vgner7lVVPfS3MCY-5" value="" style="rounded=0;whiteSpace=wrap;html=1;fillColor=#ffcd28;strokeColor=#d79b00;gradientColor=#ffa500;" vertex="1" parent="1">
          <mxGeometry x="410" y="1760" width="10" height="20" as="geometry" />
        </mxCell>
        <mxCell id="4363vgner7lVVPfS3MCY-6" value="" style="rounded=0;whiteSpace=wrap;html=1;fillColor=#6a00ff;strokeColor=#3700CC;fontColor=#ffffff;" vertex="1" parent="1">
          <mxGeometry x="390" y="1760" width="10" height="20" as="geometry" />
        </mxCell>
        <mxCell id="4363vgner7lVVPfS3MCY-7" value="" style="rounded=0;whiteSpace=wrap;html=1;fillColor=#1ba1e2;strokeColor=#006EAF;fontColor=#ffffff;" vertex="1" parent="1">
          <mxGeometry x="380" y="1760" width="10" height="20" as="geometry" />
        </mxCell>
        <mxCell id="4363vgner7lVVPfS3MCY-11" value="" style="rounded=0;whiteSpace=wrap;html=1;fillColor=#0000FF;strokeColor=#7F00FF;" vertex="1" parent="1">
          <mxGeometry x="420" y="1760" width="10" height="20" as="geometry" />
        </mxCell>
        <mxCell id="4363vgner7lVVPfS3MCY-12" value="" style="rounded=0;whiteSpace=wrap;html=1;fillColor=#a20025;strokeColor=#6F0000;fontColor=#ffffff;" vertex="1" parent="1">
          <mxGeometry x="400" y="1760" width="10" height="20" as="geometry" />
        </mxCell>
        <mxCell id="4363vgner7lVVPfS3MCY-13" value="" style="rounded=0;whiteSpace=wrap;html=1;fillColor=#e3c800;strokeColor=#B09500;fontColor=#000000;" vertex="1" parent="1">
          <mxGeometry x="430" y="1760" width="10" height="20" as="geometry" />
        </mxCell>
        <mxCell id="4363vgner7lVVPfS3MCY-14" value="" style="rounded=0;whiteSpace=wrap;html=1;fillColor=#0050ef;strokeColor=#001DBC;fontColor=#ffffff;" vertex="1" parent="1">
          <mxGeometry x="440" y="1760" width="10" height="20" as="geometry" />
        </mxCell>
        <mxCell id="4363vgner7lVVPfS3MCY-34" value="" style="shape=mxgraph.rack.ibm.ibm_x3630_m3;html=1;labelPosition=right;align=left;spacingLeft=15;dashed=0;shadow=0;fillColor=#ffffff;" vertex="1" parent="1">
          <mxGeometry x="750" y="1780" width="80" height="30" as="geometry" />
        </mxCell>
        <mxCell id="4363vgner7lVVPfS3MCY-35" value="" style="rounded=0;whiteSpace=wrap;html=1;fillColor=#008a00;strokeColor=#005700;fontColor=#ffffff;" vertex="1" parent="1">
          <mxGeometry x="750" y="1760" width="10" height="20" as="geometry" />
        </mxCell>
        <mxCell id="4363vgner7lVVPfS3MCY-36" value="" style="rounded=0;whiteSpace=wrap;html=1;fillColor=#ffcd28;strokeColor=#d79b00;gradientColor=#ffa500;" vertex="1" parent="1">
          <mxGeometry x="790" y="1760" width="10" height="20" as="geometry" />
        </mxCell>
        <mxCell id="4363vgner7lVVPfS3MCY-37" value="" style="rounded=0;whiteSpace=wrap;html=1;fillColor=#6a00ff;strokeColor=#3700CC;fontColor=#ffffff;" vertex="1" parent="1">
          <mxGeometry x="770" y="1760" width="10" height="20" as="geometry" />
        </mxCell>
        <mxCell id="4363vgner7lVVPfS3MCY-38" value="" style="rounded=0;whiteSpace=wrap;html=1;fillColor=#1ba1e2;strokeColor=#006EAF;fontColor=#ffffff;" vertex="1" parent="1">
          <mxGeometry x="760" y="1760" width="10" height="20" as="geometry" />
        </mxCell>
        <mxCell id="4363vgner7lVVPfS3MCY-39" value="" style="rounded=0;whiteSpace=wrap;html=1;fillColor=#0000FF;strokeColor=#7F00FF;" vertex="1" parent="1">
          <mxGeometry x="800" y="1760" width="10" height="20" as="geometry" />
        </mxCell>
        <mxCell id="4363vgner7lVVPfS3MCY-40" value="" style="rounded=0;whiteSpace=wrap;html=1;fillColor=#a20025;strokeColor=#6F0000;fontColor=#ffffff;" vertex="1" parent="1">
          <mxGeometry x="780" y="1760" width="10" height="20" as="geometry" />
        </mxCell>
        <mxCell id="4363vgner7lVVPfS3MCY-41" value="" style="rounded=0;whiteSpace=wrap;html=1;fillColor=#e3c800;strokeColor=#B09500;fontColor=#000000;" vertex="1" parent="1">
          <mxGeometry x="810" y="1760" width="10" height="20" as="geometry" />
        </mxCell>
        <mxCell id="4363vgner7lVVPfS3MCY-42" value="" style="rounded=0;whiteSpace=wrap;html=1;fillColor=#0050ef;strokeColor=#001DBC;fontColor=#ffffff;" vertex="1" parent="1">
          <mxGeometry x="820" y="1760" width="10" height="20" as="geometry" />
        </mxCell>
        <mxCell id="4363vgner7lVVPfS3MCY-43" value="" style="shape=mxgraph.cisco.switches.atm_switch;sketch=0;html=1;pointerEvents=1;dashed=0;fillColor=#036897;strokeColor=#ffffff;strokeWidth=2;verticalLabelPosition=bottom;verticalAlign=top;align=center;outlineConnect=0;" vertex="1" parent="1">
          <mxGeometry x="430" y="1570" width="40" height="36" as="geometry" />
        </mxCell>
        <mxCell id="4363vgner7lVVPfS3MCY-44" value="" style="shape=mxgraph.cisco.switches.atm_switch;sketch=0;html=1;pointerEvents=1;dashed=0;fillColor=#036897;strokeColor=#ffffff;strokeWidth=2;verticalLabelPosition=bottom;verticalAlign=top;align=center;outlineConnect=0;" vertex="1" parent="1">
          <mxGeometry x="490" y="1570" width="40" height="36" as="geometry" />
        </mxCell>
        <mxCell id="4363vgner7lVVPfS3MCY-45" value="" style="shape=mxgraph.cisco.switches.atm_switch;sketch=0;html=1;pointerEvents=1;dashed=0;fillColor=#036897;strokeColor=#ffffff;strokeWidth=2;verticalLabelPosition=bottom;verticalAlign=top;align=center;outlineConnect=0;" vertex="1" parent="1">
          <mxGeometry x="550" y="1570" width="40" height="36" as="geometry" />
        </mxCell>
        <mxCell id="4363vgner7lVVPfS3MCY-46" value="" style="shape=mxgraph.cisco.switches.atm_switch;sketch=0;html=1;pointerEvents=1;dashed=0;fillColor=#036897;strokeColor=#ffffff;strokeWidth=2;verticalLabelPosition=bottom;verticalAlign=top;align=center;outlineConnect=0;" vertex="1" parent="1">
          <mxGeometry x="610" y="1570" width="40" height="36" as="geometry" />
        </mxCell>
        <mxCell id="4363vgner7lVVPfS3MCY-47" value="" style="shape=mxgraph.cisco.switches.atm_switch;sketch=0;html=1;pointerEvents=1;dashed=0;fillColor=#036897;strokeColor=#ffffff;strokeWidth=2;verticalLabelPosition=bottom;verticalAlign=top;align=center;outlineConnect=0;" vertex="1" parent="1">
          <mxGeometry x="670" y="1570" width="40" height="36" as="geometry" />
        </mxCell>
        <mxCell id="4363vgner7lVVPfS3MCY-48" value="" style="shape=mxgraph.cisco.switches.atm_switch;sketch=0;html=1;pointerEvents=1;dashed=0;fillColor=#036897;strokeColor=#ffffff;strokeWidth=2;verticalLabelPosition=bottom;verticalAlign=top;align=center;outlineConnect=0;" vertex="1" parent="1">
          <mxGeometry x="730" y="1570" width="40" height="36" as="geometry" />
        </mxCell>
        <mxCell id="4363vgner7lVVPfS3MCY-49" value="" style="shape=mxgraph.cisco.switches.atm_switch;sketch=0;html=1;pointerEvents=1;dashed=0;fillColor=#036897;strokeColor=#ffffff;strokeWidth=2;verticalLabelPosition=bottom;verticalAlign=top;align=center;outlineConnect=0;" vertex="1" parent="1">
          <mxGeometry x="790" y="1570" width="40" height="36" as="geometry" />
        </mxCell>
        <mxCell id="4363vgner7lVVPfS3MCY-51" style="rounded=0;orthogonalLoop=1;jettySize=auto;html=1;startArrow=none;startFill=0;strokeWidth=1;endArrow=none;endFill=0;strokeColor=#FF8000;entryX=0.5;entryY=1;entryDx=0;entryDy=0;entryPerimeter=0;exitX=0.25;exitY=0;exitDx=0;exitDy=0;" edge="1" parent="1" source="4363vgner7lVVPfS3MCY-7" target="4363vgner7lVVPfS3MCY-43">
          <mxGeometry relative="1" as="geometry">
            <mxPoint x="390" y="1760" as="sourcePoint" />
            <mxPoint x="398" y="1616" as="targetPoint" />
          </mxGeometry>
        </mxCell>
        <mxCell id="4363vgner7lVVPfS3MCY-52" style="rounded=0;orthogonalLoop=1;jettySize=auto;html=1;startArrow=none;startFill=0;strokeWidth=1;endArrow=none;endFill=0;strokeColor=#FF8000;entryX=0.5;entryY=1;entryDx=0;entryDy=0;entryPerimeter=0;exitX=0.5;exitY=0;exitDx=0;exitDy=0;" edge="1" parent="1" source="4363vgner7lVVPfS3MCY-6" target="4363vgner7lVVPfS3MCY-44">
          <mxGeometry relative="1" as="geometry">
            <mxPoint x="393" y="1770" as="sourcePoint" />
            <mxPoint x="460" y="1616" as="targetPoint" />
          </mxGeometry>
        </mxCell>
        <mxCell id="4363vgner7lVVPfS3MCY-53" style="rounded=0;orthogonalLoop=1;jettySize=auto;html=1;startArrow=none;startFill=0;strokeWidth=1;endArrow=none;endFill=0;strokeColor=#FF8000;entryX=0.5;entryY=1;entryDx=0;entryDy=0;entryPerimeter=0;exitX=0.5;exitY=0;exitDx=0;exitDy=0;" edge="1" parent="1" source="4363vgner7lVVPfS3MCY-12" target="4363vgner7lVVPfS3MCY-45">
          <mxGeometry relative="1" as="geometry">
            <mxPoint x="403" y="1780" as="sourcePoint" />
            <mxPoint x="470" y="1626" as="targetPoint" />
          </mxGeometry>
        </mxCell>
        <mxCell id="4363vgner7lVVPfS3MCY-54" style="rounded=0;orthogonalLoop=1;jettySize=auto;html=1;startArrow=none;startFill=0;strokeWidth=1;endArrow=none;endFill=0;strokeColor=#FF8000;entryX=0.5;entryY=1;entryDx=0;entryDy=0;entryPerimeter=0;exitX=0.5;exitY=0;exitDx=0;exitDy=0;" edge="1" parent="1" source="4363vgner7lVVPfS3MCY-5" target="4363vgner7lVVPfS3MCY-46">
          <mxGeometry relative="1" as="geometry">
            <mxPoint x="413" y="1790" as="sourcePoint" />
            <mxPoint x="480" y="1636" as="targetPoint" />
          </mxGeometry>
        </mxCell>
        <mxCell id="4363vgner7lVVPfS3MCY-55" style="rounded=0;orthogonalLoop=1;jettySize=auto;html=1;startArrow=none;startFill=0;strokeWidth=1;endArrow=none;endFill=0;strokeColor=#FF8000;entryX=0.5;entryY=1;entryDx=0;entryDy=0;entryPerimeter=0;exitX=0.5;exitY=0;exitDx=0;exitDy=0;" edge="1" parent="1" source="4363vgner7lVVPfS3MCY-11" target="4363vgner7lVVPfS3MCY-47">
          <mxGeometry relative="1" as="geometry">
            <mxPoint x="423" y="1800" as="sourcePoint" />
            <mxPoint x="490" y="1646" as="targetPoint" />
          </mxGeometry>
        </mxCell>
        <mxCell id="4363vgner7lVVPfS3MCY-56" style="rounded=0;orthogonalLoop=1;jettySize=auto;html=1;startArrow=none;startFill=0;strokeWidth=1;endArrow=none;endFill=0;strokeColor=#FF8000;entryX=0.5;entryY=1;entryDx=0;entryDy=0;entryPerimeter=0;exitX=0.5;exitY=0;exitDx=0;exitDy=0;" edge="1" parent="1" source="4363vgner7lVVPfS3MCY-13" target="4363vgner7lVVPfS3MCY-48">
          <mxGeometry relative="1" as="geometry">
            <mxPoint x="433" y="1810" as="sourcePoint" />
            <mxPoint x="500" y="1656" as="targetPoint" />
          </mxGeometry>
        </mxCell>
        <mxCell id="4363vgner7lVVPfS3MCY-57" style="rounded=0;orthogonalLoop=1;jettySize=auto;html=1;startArrow=none;startFill=0;strokeWidth=1;endArrow=none;endFill=0;strokeColor=#FF8000;entryX=0.5;entryY=1;entryDx=0;entryDy=0;entryPerimeter=0;exitX=0.5;exitY=0;exitDx=0;exitDy=0;" edge="1" parent="1" source="4363vgner7lVVPfS3MCY-14" target="4363vgner7lVVPfS3MCY-49">
          <mxGeometry relative="1" as="geometry">
            <mxPoint x="443" y="1820" as="sourcePoint" />
            <mxPoint x="510" y="1666" as="targetPoint" />
          </mxGeometry>
        </mxCell>
        <mxCell id="4363vgner7lVVPfS3MCY-58" style="rounded=0;orthogonalLoop=1;jettySize=auto;html=1;startArrow=none;startFill=0;strokeWidth=1;endArrow=none;endFill=0;strokeColor=#FF8000;entryX=0.5;entryY=1;entryDx=0;entryDy=0;entryPerimeter=0;exitX=0.75;exitY=0;exitDx=0;exitDy=0;" edge="1" parent="1" source="4363vgner7lVVPfS3MCY-42" target="4363vgner7lVVPfS3MCY-49">
          <mxGeometry relative="1" as="geometry">
            <mxPoint x="453" y="1830" as="sourcePoint" />
            <mxPoint x="520" y="1676" as="targetPoint" />
          </mxGeometry>
        </mxCell>
        <mxCell id="4363vgner7lVVPfS3MCY-59" style="rounded=0;orthogonalLoop=1;jettySize=auto;html=1;startArrow=none;startFill=0;strokeWidth=1;endArrow=none;endFill=0;strokeColor=#FF8000;entryX=0.5;entryY=1;entryDx=0;entryDy=0;entryPerimeter=0;exitX=-0.443;exitY=0.01;exitDx=0;exitDy=0;exitPerimeter=0;" edge="1" parent="1" source="4363vgner7lVVPfS3MCY-42" target="4363vgner7lVVPfS3MCY-48">
          <mxGeometry relative="1" as="geometry">
            <mxPoint x="838" y="1770" as="sourcePoint" />
            <mxPoint x="820" y="1616" as="targetPoint" />
          </mxGeometry>
        </mxCell>
        <mxCell id="4363vgner7lVVPfS3MCY-60" style="rounded=0;orthogonalLoop=1;jettySize=auto;html=1;startArrow=none;startFill=0;strokeWidth=1;endArrow=none;endFill=0;strokeColor=#FF8000;entryX=0.5;entryY=1;entryDx=0;entryDy=0;entryPerimeter=0;exitX=0.5;exitY=0;exitDx=0;exitDy=0;" edge="1" parent="1" source="4363vgner7lVVPfS3MCY-39" target="4363vgner7lVVPfS3MCY-47">
          <mxGeometry relative="1" as="geometry">
            <mxPoint x="848" y="1780" as="sourcePoint" />
            <mxPoint x="830" y="1626" as="targetPoint" />
          </mxGeometry>
        </mxCell>
        <mxCell id="4363vgner7lVVPfS3MCY-61" style="rounded=0;orthogonalLoop=1;jettySize=auto;html=1;startArrow=none;startFill=0;strokeWidth=1;endArrow=none;endFill=0;strokeColor=#FF8000;entryX=0.5;entryY=1;entryDx=0;entryDy=0;entryPerimeter=0;" edge="1" parent="1" target="4363vgner7lVVPfS3MCY-46">
          <mxGeometry relative="1" as="geometry">
            <mxPoint x="795" y="1760" as="sourcePoint" />
            <mxPoint x="840" y="1636" as="targetPoint" />
          </mxGeometry>
        </mxCell>
        <mxCell id="4363vgner7lVVPfS3MCY-62" style="rounded=0;orthogonalLoop=1;jettySize=auto;html=1;startArrow=none;startFill=0;strokeWidth=1;endArrow=none;endFill=0;strokeColor=#FF8000;entryX=0.5;entryY=1;entryDx=0;entryDy=0;entryPerimeter=0;exitX=0.5;exitY=0;exitDx=0;exitDy=0;" edge="1" parent="1" source="4363vgner7lVVPfS3MCY-40" target="4363vgner7lVVPfS3MCY-45">
          <mxGeometry relative="1" as="geometry">
            <mxPoint x="868" y="1800" as="sourcePoint" />
            <mxPoint x="850" y="1646" as="targetPoint" />
          </mxGeometry>
        </mxCell>
        <mxCell id="4363vgner7lVVPfS3MCY-63" style="rounded=0;orthogonalLoop=1;jettySize=auto;html=1;startArrow=none;startFill=0;strokeWidth=1;endArrow=none;endFill=0;strokeColor=#FF8000;entryX=0.5;entryY=1;entryDx=0;entryDy=0;entryPerimeter=0;exitX=0.5;exitY=0;exitDx=0;exitDy=0;" edge="1" parent="1" source="4363vgner7lVVPfS3MCY-37" target="4363vgner7lVVPfS3MCY-44">
          <mxGeometry relative="1" as="geometry">
            <mxPoint x="878" y="1810" as="sourcePoint" />
            <mxPoint x="860" y="1656" as="targetPoint" />
          </mxGeometry>
        </mxCell>
        <mxCell id="4363vgner7lVVPfS3MCY-64" style="rounded=0;orthogonalLoop=1;jettySize=auto;html=1;startArrow=none;startFill=0;strokeWidth=1;endArrow=none;endFill=0;strokeColor=#FF8000;entryX=0.5;entryY=1;entryDx=0;entryDy=0;entryPerimeter=0;exitX=0.5;exitY=0;exitDx=0;exitDy=0;" edge="1" parent="1" source="4363vgner7lVVPfS3MCY-38" target="4363vgner7lVVPfS3MCY-43">
          <mxGeometry relative="1" as="geometry">
            <mxPoint x="888" y="1820" as="sourcePoint" />
            <mxPoint x="870" y="1666" as="targetPoint" />
          </mxGeometry>
        </mxCell>
        <mxCell id="4363vgner7lVVPfS3MCY-65" style="rounded=0;orthogonalLoop=1;jettySize=auto;html=1;startArrow=none;startFill=0;strokeWidth=1;endArrow=none;endFill=0;strokeColor=#FF8000;entryX=0.5;entryY=1;entryDx=0;entryDy=0;entryPerimeter=0;exitX=0.5;exitY=0;exitDx=0;exitDy=0;" edge="1" parent="1" source="4363vgner7lVVPfS3MCY-35" target="tHSjwurjkYHsTCEM8UBL-1">
          <mxGeometry relative="1" as="geometry">
            <mxPoint x="898" y="1830" as="sourcePoint" />
            <mxPoint x="880" y="1676" as="targetPoint" />
          </mxGeometry>
        </mxCell>
        <mxCell id="4363vgner7lVVPfS3MCY-66" value="" style="shape=mxgraph.cisco.switches.atm_switch;sketch=0;html=1;pointerEvents=1;dashed=0;fillColor=#036897;strokeColor=#ffffff;strokeWidth=2;verticalLabelPosition=bottom;verticalAlign=top;align=center;outlineConnect=0;" vertex="1" parent="1">
          <mxGeometry x="1140" y="1570" width="40" height="36" as="geometry" />
        </mxCell>
        <mxCell id="4363vgner7lVVPfS3MCY-67" value="" style="shape=mxgraph.rack.ibm.ibm_x3630_m3;html=1;labelPosition=right;align=left;spacingLeft=15;dashed=0;shadow=0;fillColor=#ffffff;" vertex="1" parent="1">
          <mxGeometry x="1140" y="1780" width="80" height="30" as="geometry" />
        </mxCell>
        <mxCell id="4363vgner7lVVPfS3MCY-68" style="rounded=0;orthogonalLoop=1;jettySize=auto;html=1;exitX=0.25;exitY=0;exitDx=0;exitDy=0;startArrow=none;startFill=0;strokeWidth=1;endArrow=none;endFill=0;strokeColor=#FF8000;" edge="1" parent="1" source="4363vgner7lVVPfS3MCY-69" target="4363vgner7lVVPfS3MCY-66">
          <mxGeometry relative="1" as="geometry" />
        </mxCell>
        <mxCell id="4363vgner7lVVPfS3MCY-69" value="" style="rounded=0;whiteSpace=wrap;html=1;fillColor=#008a00;strokeColor=#005700;fontColor=#ffffff;" vertex="1" parent="1">
          <mxGeometry x="1140" y="1760" width="10" height="20" as="geometry" />
        </mxCell>
        <mxCell id="4363vgner7lVVPfS3MCY-70" value="" style="rounded=0;whiteSpace=wrap;html=1;fillColor=#ffcd28;strokeColor=#d79b00;gradientColor=#ffa500;" vertex="1" parent="1">
          <mxGeometry x="1180" y="1760" width="10" height="20" as="geometry" />
        </mxCell>
        <mxCell id="4363vgner7lVVPfS3MCY-71" value="" style="rounded=0;whiteSpace=wrap;html=1;fillColor=#6a00ff;strokeColor=#3700CC;fontColor=#ffffff;" vertex="1" parent="1">
          <mxGeometry x="1160" y="1760" width="10" height="20" as="geometry" />
        </mxCell>
        <mxCell id="4363vgner7lVVPfS3MCY-72" value="" style="rounded=0;whiteSpace=wrap;html=1;fillColor=#1ba1e2;strokeColor=#006EAF;fontColor=#ffffff;" vertex="1" parent="1">
          <mxGeometry x="1150" y="1760" width="10" height="20" as="geometry" />
        </mxCell>
        <mxCell id="4363vgner7lVVPfS3MCY-73" value="" style="rounded=0;whiteSpace=wrap;html=1;fillColor=#0000FF;strokeColor=#7F00FF;" vertex="1" parent="1">
          <mxGeometry x="1190" y="1760" width="10" height="20" as="geometry" />
        </mxCell>
        <mxCell id="4363vgner7lVVPfS3MCY-74" value="" style="rounded=0;whiteSpace=wrap;html=1;fillColor=#a20025;strokeColor=#6F0000;fontColor=#ffffff;" vertex="1" parent="1">
          <mxGeometry x="1170" y="1760" width="10" height="20" as="geometry" />
        </mxCell>
        <mxCell id="4363vgner7lVVPfS3MCY-75" value="" style="rounded=0;whiteSpace=wrap;html=1;fillColor=#e3c800;strokeColor=#B09500;fontColor=#000000;" vertex="1" parent="1">
          <mxGeometry x="1200" y="1760" width="10" height="20" as="geometry" />
        </mxCell>
        <mxCell id="4363vgner7lVVPfS3MCY-76" value="" style="rounded=0;whiteSpace=wrap;html=1;fillColor=#0050ef;strokeColor=#001DBC;fontColor=#ffffff;" vertex="1" parent="1">
          <mxGeometry x="1210" y="1760" width="10" height="20" as="geometry" />
        </mxCell>
        <mxCell id="4363vgner7lVVPfS3MCY-77" value="" style="shape=mxgraph.rack.ibm.ibm_x3630_m3;html=1;labelPosition=right;align=left;spacingLeft=15;dashed=0;shadow=0;fillColor=#ffffff;" vertex="1" parent="1">
          <mxGeometry x="1520" y="1780" width="80" height="30" as="geometry" />
        </mxCell>
        <mxCell id="4363vgner7lVVPfS3MCY-78" value="" style="rounded=0;whiteSpace=wrap;html=1;fillColor=#008a00;strokeColor=#005700;fontColor=#ffffff;" vertex="1" parent="1">
          <mxGeometry x="1520" y="1760" width="10" height="20" as="geometry" />
        </mxCell>
        <mxCell id="4363vgner7lVVPfS3MCY-79" value="" style="rounded=0;whiteSpace=wrap;html=1;fillColor=#ffcd28;strokeColor=#d79b00;gradientColor=#ffa500;" vertex="1" parent="1">
          <mxGeometry x="1560" y="1760" width="10" height="20" as="geometry" />
        </mxCell>
        <mxCell id="4363vgner7lVVPfS3MCY-80" value="" style="rounded=0;whiteSpace=wrap;html=1;fillColor=#6a00ff;strokeColor=#3700CC;fontColor=#ffffff;" vertex="1" parent="1">
          <mxGeometry x="1540" y="1760" width="10" height="20" as="geometry" />
        </mxCell>
        <mxCell id="4363vgner7lVVPfS3MCY-81" value="" style="rounded=0;whiteSpace=wrap;html=1;fillColor=#1ba1e2;strokeColor=#006EAF;fontColor=#ffffff;" vertex="1" parent="1">
          <mxGeometry x="1530" y="1760" width="10" height="20" as="geometry" />
        </mxCell>
        <mxCell id="4363vgner7lVVPfS3MCY-82" value="" style="rounded=0;whiteSpace=wrap;html=1;fillColor=#0000FF;strokeColor=#7F00FF;" vertex="1" parent="1">
          <mxGeometry x="1570" y="1760" width="10" height="20" as="geometry" />
        </mxCell>
        <mxCell id="4363vgner7lVVPfS3MCY-83" value="" style="rounded=0;whiteSpace=wrap;html=1;fillColor=#a20025;strokeColor=#6F0000;fontColor=#ffffff;" vertex="1" parent="1">
          <mxGeometry x="1550" y="1760" width="10" height="20" as="geometry" />
        </mxCell>
        <mxCell id="4363vgner7lVVPfS3MCY-84" value="" style="rounded=0;whiteSpace=wrap;html=1;fillColor=#e3c800;strokeColor=#B09500;fontColor=#000000;" vertex="1" parent="1">
          <mxGeometry x="1580" y="1760" width="10" height="20" as="geometry" />
        </mxCell>
        <mxCell id="4363vgner7lVVPfS3MCY-85" value="" style="rounded=0;whiteSpace=wrap;html=1;fillColor=#0050ef;strokeColor=#001DBC;fontColor=#ffffff;" vertex="1" parent="1">
          <mxGeometry x="1590" y="1760" width="10" height="20" as="geometry" />
        </mxCell>
        <mxCell id="4363vgner7lVVPfS3MCY-86" value="" style="shape=mxgraph.cisco.switches.atm_switch;sketch=0;html=1;pointerEvents=1;dashed=0;fillColor=#036897;strokeColor=#ffffff;strokeWidth=2;verticalLabelPosition=bottom;verticalAlign=top;align=center;outlineConnect=0;" vertex="1" parent="1">
          <mxGeometry x="1200" y="1570" width="40" height="36" as="geometry" />
        </mxCell>
        <mxCell id="4363vgner7lVVPfS3MCY-87" value="" style="shape=mxgraph.cisco.switches.atm_switch;sketch=0;html=1;pointerEvents=1;dashed=0;fillColor=#036897;strokeColor=#ffffff;strokeWidth=2;verticalLabelPosition=bottom;verticalAlign=top;align=center;outlineConnect=0;" vertex="1" parent="1">
          <mxGeometry x="1260" y="1570" width="40" height="36" as="geometry" />
        </mxCell>
        <mxCell id="4363vgner7lVVPfS3MCY-88" value="" style="shape=mxgraph.cisco.switches.atm_switch;sketch=0;html=1;pointerEvents=1;dashed=0;fillColor=#036897;strokeColor=#ffffff;strokeWidth=2;verticalLabelPosition=bottom;verticalAlign=top;align=center;outlineConnect=0;" vertex="1" parent="1">
          <mxGeometry x="1320" y="1570" width="40" height="36" as="geometry" />
        </mxCell>
        <mxCell id="4363vgner7lVVPfS3MCY-89" value="" style="shape=mxgraph.cisco.switches.atm_switch;sketch=0;html=1;pointerEvents=1;dashed=0;fillColor=#036897;strokeColor=#ffffff;strokeWidth=2;verticalLabelPosition=bottom;verticalAlign=top;align=center;outlineConnect=0;" vertex="1" parent="1">
          <mxGeometry x="1380" y="1570" width="40" height="36" as="geometry" />
        </mxCell>
        <mxCell id="4363vgner7lVVPfS3MCY-90" value="" style="shape=mxgraph.cisco.switches.atm_switch;sketch=0;html=1;pointerEvents=1;dashed=0;fillColor=#036897;strokeColor=#ffffff;strokeWidth=2;verticalLabelPosition=bottom;verticalAlign=top;align=center;outlineConnect=0;" vertex="1" parent="1">
          <mxGeometry x="1440" y="1570" width="40" height="36" as="geometry" />
        </mxCell>
        <mxCell id="4363vgner7lVVPfS3MCY-91" value="" style="shape=mxgraph.cisco.switches.atm_switch;sketch=0;html=1;pointerEvents=1;dashed=0;fillColor=#036897;strokeColor=#ffffff;strokeWidth=2;verticalLabelPosition=bottom;verticalAlign=top;align=center;outlineConnect=0;" vertex="1" parent="1">
          <mxGeometry x="1500" y="1570" width="40" height="36" as="geometry" />
        </mxCell>
        <mxCell id="4363vgner7lVVPfS3MCY-92" value="" style="shape=mxgraph.cisco.switches.atm_switch;sketch=0;html=1;pointerEvents=1;dashed=0;fillColor=#036897;strokeColor=#ffffff;strokeWidth=2;verticalLabelPosition=bottom;verticalAlign=top;align=center;outlineConnect=0;" vertex="1" parent="1">
          <mxGeometry x="1560" y="1570" width="40" height="36" as="geometry" />
        </mxCell>
        <mxCell id="4363vgner7lVVPfS3MCY-93" style="rounded=0;orthogonalLoop=1;jettySize=auto;html=1;startArrow=none;startFill=0;strokeWidth=1;endArrow=none;endFill=0;strokeColor=#FF8000;entryX=0.5;entryY=1;entryDx=0;entryDy=0;entryPerimeter=0;exitX=0.25;exitY=0;exitDx=0;exitDy=0;" edge="1" parent="1" source="4363vgner7lVVPfS3MCY-72" target="4363vgner7lVVPfS3MCY-86">
          <mxGeometry relative="1" as="geometry">
            <mxPoint x="1160" y="1760" as="sourcePoint" />
            <mxPoint x="1168" y="1616" as="targetPoint" />
          </mxGeometry>
        </mxCell>
        <mxCell id="4363vgner7lVVPfS3MCY-94" style="rounded=0;orthogonalLoop=1;jettySize=auto;html=1;startArrow=none;startFill=0;strokeWidth=1;endArrow=none;endFill=0;strokeColor=#FF8000;entryX=0.5;entryY=1;entryDx=0;entryDy=0;entryPerimeter=0;exitX=0.5;exitY=0;exitDx=0;exitDy=0;" edge="1" parent="1" source="4363vgner7lVVPfS3MCY-71" target="4363vgner7lVVPfS3MCY-87">
          <mxGeometry relative="1" as="geometry">
            <mxPoint x="1163" y="1770" as="sourcePoint" />
            <mxPoint x="1230" y="1616" as="targetPoint" />
          </mxGeometry>
        </mxCell>
        <mxCell id="4363vgner7lVVPfS3MCY-95" style="rounded=0;orthogonalLoop=1;jettySize=auto;html=1;startArrow=none;startFill=0;strokeWidth=1;endArrow=none;endFill=0;strokeColor=#FF8000;entryX=0.5;entryY=1;entryDx=0;entryDy=0;entryPerimeter=0;exitX=0.5;exitY=0;exitDx=0;exitDy=0;" edge="1" parent="1" source="4363vgner7lVVPfS3MCY-74" target="4363vgner7lVVPfS3MCY-88">
          <mxGeometry relative="1" as="geometry">
            <mxPoint x="1173" y="1780" as="sourcePoint" />
            <mxPoint x="1240" y="1626" as="targetPoint" />
          </mxGeometry>
        </mxCell>
        <mxCell id="4363vgner7lVVPfS3MCY-96" style="rounded=0;orthogonalLoop=1;jettySize=auto;html=1;startArrow=none;startFill=0;strokeWidth=1;endArrow=none;endFill=0;strokeColor=#FF8000;entryX=0.5;entryY=1;entryDx=0;entryDy=0;entryPerimeter=0;exitX=0.5;exitY=0;exitDx=0;exitDy=0;" edge="1" parent="1" source="4363vgner7lVVPfS3MCY-70" target="4363vgner7lVVPfS3MCY-89">
          <mxGeometry relative="1" as="geometry">
            <mxPoint x="1183" y="1790" as="sourcePoint" />
            <mxPoint x="1250" y="1636" as="targetPoint" />
          </mxGeometry>
        </mxCell>
        <mxCell id="4363vgner7lVVPfS3MCY-97" style="rounded=0;orthogonalLoop=1;jettySize=auto;html=1;startArrow=none;startFill=0;strokeWidth=1;endArrow=none;endFill=0;strokeColor=#FF8000;entryX=0.5;entryY=1;entryDx=0;entryDy=0;entryPerimeter=0;exitX=0.5;exitY=0;exitDx=0;exitDy=0;" edge="1" parent="1" source="4363vgner7lVVPfS3MCY-73" target="4363vgner7lVVPfS3MCY-90">
          <mxGeometry relative="1" as="geometry">
            <mxPoint x="1193" y="1800" as="sourcePoint" />
            <mxPoint x="1260" y="1646" as="targetPoint" />
          </mxGeometry>
        </mxCell>
        <mxCell id="4363vgner7lVVPfS3MCY-98" style="rounded=0;orthogonalLoop=1;jettySize=auto;html=1;startArrow=none;startFill=0;strokeWidth=1;endArrow=none;endFill=0;strokeColor=#FF8000;entryX=0.5;entryY=1;entryDx=0;entryDy=0;entryPerimeter=0;exitX=0.5;exitY=0;exitDx=0;exitDy=0;" edge="1" parent="1" source="4363vgner7lVVPfS3MCY-75" target="4363vgner7lVVPfS3MCY-91">
          <mxGeometry relative="1" as="geometry">
            <mxPoint x="1203" y="1810" as="sourcePoint" />
            <mxPoint x="1270" y="1656" as="targetPoint" />
          </mxGeometry>
        </mxCell>
        <mxCell id="4363vgner7lVVPfS3MCY-99" style="rounded=0;orthogonalLoop=1;jettySize=auto;html=1;startArrow=none;startFill=0;strokeWidth=1;endArrow=none;endFill=0;strokeColor=#FF8000;entryX=0.5;entryY=1;entryDx=0;entryDy=0;entryPerimeter=0;exitX=0.5;exitY=0;exitDx=0;exitDy=0;" edge="1" parent="1" source="4363vgner7lVVPfS3MCY-76" target="4363vgner7lVVPfS3MCY-92">
          <mxGeometry relative="1" as="geometry">
            <mxPoint x="1213" y="1820" as="sourcePoint" />
            <mxPoint x="1280" y="1666" as="targetPoint" />
          </mxGeometry>
        </mxCell>
        <mxCell id="4363vgner7lVVPfS3MCY-100" style="rounded=0;orthogonalLoop=1;jettySize=auto;html=1;startArrow=none;startFill=0;strokeWidth=1;endArrow=none;endFill=0;strokeColor=#FF8000;entryX=0.5;entryY=1;entryDx=0;entryDy=0;entryPerimeter=0;exitX=0.75;exitY=0;exitDx=0;exitDy=0;" edge="1" parent="1" source="4363vgner7lVVPfS3MCY-85" target="4363vgner7lVVPfS3MCY-92">
          <mxGeometry relative="1" as="geometry">
            <mxPoint x="1223" y="1830" as="sourcePoint" />
            <mxPoint x="1290" y="1676" as="targetPoint" />
          </mxGeometry>
        </mxCell>
        <mxCell id="4363vgner7lVVPfS3MCY-101" style="rounded=0;orthogonalLoop=1;jettySize=auto;html=1;startArrow=none;startFill=0;strokeWidth=1;endArrow=none;endFill=0;strokeColor=#FF8000;entryX=0.5;entryY=1;entryDx=0;entryDy=0;entryPerimeter=0;exitX=-0.443;exitY=0.01;exitDx=0;exitDy=0;exitPerimeter=0;" edge="1" parent="1" source="4363vgner7lVVPfS3MCY-85" target="4363vgner7lVVPfS3MCY-91">
          <mxGeometry relative="1" as="geometry">
            <mxPoint x="1608" y="1770" as="sourcePoint" />
            <mxPoint x="1590" y="1616" as="targetPoint" />
          </mxGeometry>
        </mxCell>
        <mxCell id="4363vgner7lVVPfS3MCY-102" style="rounded=0;orthogonalLoop=1;jettySize=auto;html=1;startArrow=none;startFill=0;strokeWidth=1;endArrow=none;endFill=0;strokeColor=#FF8000;entryX=0.5;entryY=1;entryDx=0;entryDy=0;entryPerimeter=0;exitX=0.5;exitY=0;exitDx=0;exitDy=0;" edge="1" parent="1" source="4363vgner7lVVPfS3MCY-82" target="4363vgner7lVVPfS3MCY-90">
          <mxGeometry relative="1" as="geometry">
            <mxPoint x="1618" y="1780" as="sourcePoint" />
            <mxPoint x="1600" y="1626" as="targetPoint" />
          </mxGeometry>
        </mxCell>
        <mxCell id="4363vgner7lVVPfS3MCY-103" style="rounded=0;orthogonalLoop=1;jettySize=auto;html=1;startArrow=none;startFill=0;strokeWidth=1;endArrow=none;endFill=0;strokeColor=#FF8000;entryX=0.5;entryY=1;entryDx=0;entryDy=0;entryPerimeter=0;" edge="1" parent="1" target="4363vgner7lVVPfS3MCY-89">
          <mxGeometry relative="1" as="geometry">
            <mxPoint x="1565" y="1760" as="sourcePoint" />
            <mxPoint x="1610" y="1636" as="targetPoint" />
          </mxGeometry>
        </mxCell>
        <mxCell id="4363vgner7lVVPfS3MCY-104" style="rounded=0;orthogonalLoop=1;jettySize=auto;html=1;startArrow=none;startFill=0;strokeWidth=1;endArrow=none;endFill=0;strokeColor=#FF8000;entryX=0.5;entryY=1;entryDx=0;entryDy=0;entryPerimeter=0;exitX=0.5;exitY=0;exitDx=0;exitDy=0;" edge="1" parent="1" source="4363vgner7lVVPfS3MCY-83" target="4363vgner7lVVPfS3MCY-88">
          <mxGeometry relative="1" as="geometry">
            <mxPoint x="1638" y="1800" as="sourcePoint" />
            <mxPoint x="1620" y="1646" as="targetPoint" />
          </mxGeometry>
        </mxCell>
        <mxCell id="4363vgner7lVVPfS3MCY-105" style="rounded=0;orthogonalLoop=1;jettySize=auto;html=1;startArrow=none;startFill=0;strokeWidth=1;endArrow=none;endFill=0;strokeColor=#FF8000;entryX=0.5;entryY=1;entryDx=0;entryDy=0;entryPerimeter=0;exitX=0.5;exitY=0;exitDx=0;exitDy=0;" edge="1" parent="1" source="4363vgner7lVVPfS3MCY-80" target="4363vgner7lVVPfS3MCY-87">
          <mxGeometry relative="1" as="geometry">
            <mxPoint x="1648" y="1810" as="sourcePoint" />
            <mxPoint x="1630" y="1656" as="targetPoint" />
          </mxGeometry>
        </mxCell>
        <mxCell id="4363vgner7lVVPfS3MCY-106" style="rounded=0;orthogonalLoop=1;jettySize=auto;html=1;startArrow=none;startFill=0;strokeWidth=1;endArrow=none;endFill=0;strokeColor=#FF8000;entryX=0.5;entryY=1;entryDx=0;entryDy=0;entryPerimeter=0;exitX=0.5;exitY=0;exitDx=0;exitDy=0;" edge="1" parent="1" source="4363vgner7lVVPfS3MCY-81" target="4363vgner7lVVPfS3MCY-86">
          <mxGeometry relative="1" as="geometry">
            <mxPoint x="1658" y="1820" as="sourcePoint" />
            <mxPoint x="1640" y="1666" as="targetPoint" />
          </mxGeometry>
        </mxCell>
        <mxCell id="4363vgner7lVVPfS3MCY-107" style="rounded=0;orthogonalLoop=1;jettySize=auto;html=1;startArrow=none;startFill=0;strokeWidth=1;endArrow=none;endFill=0;strokeColor=#FF8000;entryX=0.5;entryY=1;entryDx=0;entryDy=0;entryPerimeter=0;exitX=0.5;exitY=0;exitDx=0;exitDy=0;" edge="1" parent="1" source="4363vgner7lVVPfS3MCY-78" target="4363vgner7lVVPfS3MCY-66">
          <mxGeometry relative="1" as="geometry">
            <mxPoint x="1668" y="1830" as="sourcePoint" />
            <mxPoint x="1650" y="1676" as="targetPoint" />
          </mxGeometry>
        </mxCell>
        <mxCell id="4363vgner7lVVPfS3MCY-108" value="" style="shape=mxgraph.cisco.switches.atm_switch;sketch=0;html=1;pointerEvents=1;dashed=0;fillColor=#036897;strokeColor=#ffffff;strokeWidth=2;verticalLabelPosition=bottom;verticalAlign=top;align=center;outlineConnect=0;" vertex="1" parent="1">
          <mxGeometry x="440" y="1370" width="40" height="36" as="geometry" />
        </mxCell>
        <mxCell id="4363vgner7lVVPfS3MCY-109" value="" style="shape=mxgraph.cisco.switches.atm_switch;sketch=0;html=1;pointerEvents=1;dashed=0;fillColor=#036897;strokeColor=#ffffff;strokeWidth=2;verticalLabelPosition=bottom;verticalAlign=top;align=center;outlineConnect=0;" vertex="1" parent="1">
          <mxGeometry x="710" y="1370" width="40" height="36" as="geometry" />
        </mxCell>
        <mxCell id="4363vgner7lVVPfS3MCY-111" value="" style="shape=mxgraph.cisco.switches.atm_switch;sketch=0;html=1;pointerEvents=1;dashed=0;fillColor=#036897;strokeColor=#ffffff;strokeWidth=2;verticalLabelPosition=bottom;verticalAlign=top;align=center;outlineConnect=0;" vertex="1" parent="1">
          <mxGeometry x="1490" y="1370" width="40" height="36" as="geometry" />
        </mxCell>
        <mxCell id="4363vgner7lVVPfS3MCY-112" value="&lt;font style=&quot;font-size: 50px;&quot;&gt;...&lt;/font&gt;" style="text;strokeColor=none;align=center;fillColor=none;html=1;verticalAlign=middle;whiteSpace=wrap;rounded=0;" vertex="1" parent="1">
          <mxGeometry x="950" y="1660" width="60" height="30" as="geometry" />
        </mxCell>
        <mxCell id="4363vgner7lVVPfS3MCY-113" value="&lt;font style=&quot;font-size: 50px;&quot;&gt;...&lt;/font&gt;" style="text;strokeColor=none;align=center;fillColor=none;html=1;verticalAlign=middle;whiteSpace=wrap;rounded=0;" vertex="1" parent="1">
          <mxGeometry x="960" y="1360" width="60" height="30" as="geometry" />
        </mxCell>
        <mxCell id="4363vgner7lVVPfS3MCY-114" style="rounded=0;orthogonalLoop=1;jettySize=auto;html=1;exitX=0.5;exitY=0;exitDx=0;exitDy=0;startArrow=none;startFill=0;strokeWidth=1;endArrow=none;endFill=0;strokeColor=#FF8000;entryX=0.5;entryY=1;entryDx=0;entryDy=0;entryPerimeter=0;exitPerimeter=0;" edge="1" parent="1" source="tHSjwurjkYHsTCEM8UBL-1" target="4363vgner7lVVPfS3MCY-108">
          <mxGeometry relative="1" as="geometry">
            <mxPoint x="382" y="1770" as="sourcePoint" />
            <mxPoint x="398" y="1616" as="targetPoint" />
          </mxGeometry>
        </mxCell>
        <mxCell id="4363vgner7lVVPfS3MCY-115" style="rounded=0;orthogonalLoop=1;jettySize=auto;html=1;exitX=0.5;exitY=0;exitDx=0;exitDy=0;startArrow=none;startFill=0;strokeWidth=1;endArrow=none;endFill=0;strokeColor=#FF8000;entryX=0.5;entryY=1;entryDx=0;entryDy=0;entryPerimeter=0;exitPerimeter=0;" edge="1" parent="1" source="tHSjwurjkYHsTCEM8UBL-1" target="4363vgner7lVVPfS3MCY-109">
          <mxGeometry relative="1" as="geometry">
            <mxPoint x="400" y="1580" as="sourcePoint" />
            <mxPoint x="470" y="1416" as="targetPoint" />
          </mxGeometry>
        </mxCell>
        <mxCell id="4363vgner7lVVPfS3MCY-116" style="rounded=0;orthogonalLoop=1;jettySize=auto;html=1;exitX=0.5;exitY=0;exitDx=0;exitDy=0;startArrow=none;startFill=0;strokeWidth=1;endArrow=none;endFill=0;strokeColor=#FF8000;entryX=0.5;entryY=1;entryDx=0;entryDy=0;entryPerimeter=0;exitPerimeter=0;" edge="1" parent="1" source="4363vgner7lVVPfS3MCY-43" target="4363vgner7lVVPfS3MCY-108">
          <mxGeometry relative="1" as="geometry">
            <mxPoint x="400" y="1580" as="sourcePoint" />
            <mxPoint x="740" y="1416" as="targetPoint" />
          </mxGeometry>
        </mxCell>
        <mxCell id="4363vgner7lVVPfS3MCY-117" style="rounded=0;orthogonalLoop=1;jettySize=auto;html=1;exitX=0.5;exitY=0;exitDx=0;exitDy=0;startArrow=none;startFill=0;strokeWidth=1;endArrow=none;endFill=0;strokeColor=#FF8000;entryX=0.5;entryY=1;entryDx=0;entryDy=0;entryPerimeter=0;exitPerimeter=0;" edge="1" parent="1" source="4363vgner7lVVPfS3MCY-43" target="4363vgner7lVVPfS3MCY-109">
          <mxGeometry relative="1" as="geometry">
            <mxPoint x="460" y="1580" as="sourcePoint" />
            <mxPoint x="470" y="1416" as="targetPoint" />
          </mxGeometry>
        </mxCell>
        <mxCell id="4363vgner7lVVPfS3MCY-118" style="rounded=0;orthogonalLoop=1;jettySize=auto;html=1;startArrow=none;startFill=0;strokeWidth=1;endArrow=none;endFill=0;strokeColor=#FF8000;entryX=0.5;entryY=1;entryDx=0;entryDy=0;entryPerimeter=0;exitX=0.5;exitY=0;exitDx=0;exitDy=0;exitPerimeter=0;" edge="1" parent="1" source="4363vgner7lVVPfS3MCY-44" target="4363vgner7lVVPfS3MCY-108">
          <mxGeometry relative="1" as="geometry">
            <mxPoint x="470" y="1590" as="sourcePoint" />
            <mxPoint x="480" y="1426" as="targetPoint" />
          </mxGeometry>
        </mxCell>
        <mxCell id="4363vgner7lVVPfS3MCY-119" style="rounded=0;orthogonalLoop=1;jettySize=auto;html=1;startArrow=none;startFill=0;strokeWidth=1;endArrow=none;endFill=0;strokeColor=#FF8000;entryX=0.5;entryY=1;entryDx=0;entryDy=0;entryPerimeter=0;exitX=0.5;exitY=0;exitDx=0;exitDy=0;exitPerimeter=0;" edge="1" parent="1" source="4363vgner7lVVPfS3MCY-45" target="4363vgner7lVVPfS3MCY-108">
          <mxGeometry relative="1" as="geometry">
            <mxPoint x="520" y="1580" as="sourcePoint" />
            <mxPoint x="470" y="1416" as="targetPoint" />
          </mxGeometry>
        </mxCell>
        <mxCell id="4363vgner7lVVPfS3MCY-120" style="rounded=0;orthogonalLoop=1;jettySize=auto;html=1;startArrow=none;startFill=0;strokeWidth=1;endArrow=none;endFill=0;strokeColor=#FF8000;entryX=0.5;entryY=1;entryDx=0;entryDy=0;entryPerimeter=0;exitX=0.5;exitY=0;exitDx=0;exitDy=0;exitPerimeter=0;" edge="1" parent="1" source="4363vgner7lVVPfS3MCY-46" target="4363vgner7lVVPfS3MCY-108">
          <mxGeometry relative="1" as="geometry">
            <mxPoint x="530" y="1590" as="sourcePoint" />
            <mxPoint x="480" y="1426" as="targetPoint" />
          </mxGeometry>
        </mxCell>
        <mxCell id="4363vgner7lVVPfS3MCY-121" style="rounded=0;orthogonalLoop=1;jettySize=auto;html=1;startArrow=none;startFill=0;strokeWidth=1;endArrow=none;endFill=0;strokeColor=#FF8000;exitX=0.5;exitY=0;exitDx=0;exitDy=0;exitPerimeter=0;entryX=0.5;entryY=1;entryDx=0;entryDy=0;entryPerimeter=0;" edge="1" parent="1" source="4363vgner7lVVPfS3MCY-47" target="4363vgner7lVVPfS3MCY-108">
          <mxGeometry relative="1" as="geometry">
            <mxPoint x="540" y="1600" as="sourcePoint" />
            <mxPoint x="460" y="1410" as="targetPoint" />
          </mxGeometry>
        </mxCell>
        <mxCell id="4363vgner7lVVPfS3MCY-122" style="rounded=0;orthogonalLoop=1;jettySize=auto;html=1;startArrow=none;startFill=0;strokeWidth=1;endArrow=none;endFill=0;strokeColor=#FF8000;exitX=0.5;exitY=0;exitDx=0;exitDy=0;exitPerimeter=0;entryX=0.5;entryY=1;entryDx=0;entryDy=0;entryPerimeter=0;" edge="1" parent="1" source="4363vgner7lVVPfS3MCY-48" target="4363vgner7lVVPfS3MCY-108">
          <mxGeometry relative="1" as="geometry">
            <mxPoint x="550" y="1610" as="sourcePoint" />
            <mxPoint x="460" y="1410" as="targetPoint" />
          </mxGeometry>
        </mxCell>
        <mxCell id="4363vgner7lVVPfS3MCY-123" style="rounded=0;orthogonalLoop=1;jettySize=auto;html=1;startArrow=none;startFill=0;strokeWidth=1;endArrow=none;endFill=0;strokeColor=#FF8000;entryX=0.5;entryY=1;entryDx=0;entryDy=0;entryPerimeter=0;exitX=0.5;exitY=0;exitDx=0;exitDy=0;exitPerimeter=0;" edge="1" parent="1" source="4363vgner7lVVPfS3MCY-49" target="4363vgner7lVVPfS3MCY-108">
          <mxGeometry relative="1" as="geometry">
            <mxPoint x="560" y="1620" as="sourcePoint" />
            <mxPoint x="510" y="1456" as="targetPoint" />
          </mxGeometry>
        </mxCell>
        <mxCell id="4363vgner7lVVPfS3MCY-124" style="rounded=0;orthogonalLoop=1;jettySize=auto;html=1;exitX=0.5;exitY=0;exitDx=0;exitDy=0;startArrow=none;startFill=0;strokeWidth=1;endArrow=none;endFill=0;strokeColor=#FF8000;entryX=0.5;entryY=1;entryDx=0;entryDy=0;entryPerimeter=0;exitPerimeter=0;" edge="1" parent="1" source="4363vgner7lVVPfS3MCY-44" target="4363vgner7lVVPfS3MCY-109">
          <mxGeometry relative="1" as="geometry">
            <mxPoint x="460" y="1580" as="sourcePoint" />
            <mxPoint x="740" y="1416" as="targetPoint" />
          </mxGeometry>
        </mxCell>
        <mxCell id="4363vgner7lVVPfS3MCY-125" style="rounded=0;orthogonalLoop=1;jettySize=auto;html=1;startArrow=none;startFill=0;strokeWidth=1;endArrow=none;endFill=0;strokeColor=#FF8000;entryX=0.5;entryY=1;entryDx=0;entryDy=0;entryPerimeter=0;" edge="1" parent="1" target="4363vgner7lVVPfS3MCY-109">
          <mxGeometry relative="1" as="geometry">
            <mxPoint x="570" y="1570" as="sourcePoint" />
            <mxPoint x="750" y="1426" as="targetPoint" />
          </mxGeometry>
        </mxCell>
        <mxCell id="4363vgner7lVVPfS3MCY-126" style="rounded=0;orthogonalLoop=1;jettySize=auto;html=1;exitX=0.5;exitY=0;exitDx=0;exitDy=0;startArrow=none;startFill=0;strokeWidth=1;endArrow=none;endFill=0;strokeColor=#FF8000;entryX=0.5;entryY=1;entryDx=0;entryDy=0;entryPerimeter=0;exitPerimeter=0;" edge="1" parent="1" source="4363vgner7lVVPfS3MCY-46" target="4363vgner7lVVPfS3MCY-109">
          <mxGeometry relative="1" as="geometry">
            <mxPoint x="480" y="1600" as="sourcePoint" />
            <mxPoint x="760" y="1436" as="targetPoint" />
          </mxGeometry>
        </mxCell>
        <mxCell id="4363vgner7lVVPfS3MCY-127" style="rounded=0;orthogonalLoop=1;jettySize=auto;html=1;startArrow=none;startFill=0;strokeWidth=1;endArrow=none;endFill=0;strokeColor=#FF8000;entryX=0.5;entryY=1;entryDx=0;entryDy=0;entryPerimeter=0;" edge="1" parent="1" target="4363vgner7lVVPfS3MCY-109">
          <mxGeometry relative="1" as="geometry">
            <mxPoint x="690" y="1570" as="sourcePoint" />
            <mxPoint x="730" y="1410" as="targetPoint" />
          </mxGeometry>
        </mxCell>
        <mxCell id="4363vgner7lVVPfS3MCY-128" style="rounded=0;orthogonalLoop=1;jettySize=auto;html=1;startArrow=none;startFill=0;strokeWidth=1;endArrow=none;endFill=0;strokeColor=#FF8000;entryX=0.5;entryY=1;entryDx=0;entryDy=0;entryPerimeter=0;" edge="1" parent="1" target="4363vgner7lVVPfS3MCY-109">
          <mxGeometry relative="1" as="geometry">
            <mxPoint x="750" y="1570" as="sourcePoint" />
            <mxPoint x="780" y="1456" as="targetPoint" />
          </mxGeometry>
        </mxCell>
        <mxCell id="4363vgner7lVVPfS3MCY-129" style="rounded=0;orthogonalLoop=1;jettySize=auto;html=1;exitX=0.5;exitY=0;exitDx=0;exitDy=0;startArrow=none;startFill=0;strokeWidth=1;endArrow=none;endFill=0;strokeColor=#FF8000;entryX=0.5;entryY=1;entryDx=0;entryDy=0;entryPerimeter=0;exitPerimeter=0;" edge="1" parent="1" source="4363vgner7lVVPfS3MCY-49" target="4363vgner7lVVPfS3MCY-109">
          <mxGeometry relative="1" as="geometry">
            <mxPoint x="510" y="1630" as="sourcePoint" />
            <mxPoint x="790" y="1466" as="targetPoint" />
          </mxGeometry>
        </mxCell>
        <mxCell id="4363vgner7lVVPfS3MCY-130" style="rounded=0;orthogonalLoop=1;jettySize=auto;html=1;exitX=0.5;exitY=0;exitDx=0;exitDy=0;startArrow=none;startFill=0;strokeWidth=1;endArrow=none;endFill=0;strokeColor=#FF8000;entryX=0.5;entryY=1;entryDx=0;entryDy=0;entryPerimeter=0;exitPerimeter=0;" edge="1" parent="1" source="tHSjwurjkYHsTCEM8UBL-1" target="4363vgner7lVVPfS3MCY-111">
          <mxGeometry relative="1" as="geometry">
            <mxPoint x="820" y="1580" as="sourcePoint" />
            <mxPoint x="740" y="1416" as="targetPoint" />
          </mxGeometry>
        </mxCell>
        <mxCell id="4363vgner7lVVPfS3MCY-131" style="rounded=0;orthogonalLoop=1;jettySize=auto;html=1;exitX=0.5;exitY=0;exitDx=0;exitDy=0;startArrow=none;startFill=0;strokeWidth=1;endArrow=none;endFill=0;strokeColor=#FF8000;entryX=0.5;entryY=1;entryDx=0;entryDy=0;entryPerimeter=0;exitPerimeter=0;" edge="1" parent="1" source="4363vgner7lVVPfS3MCY-43" target="4363vgner7lVVPfS3MCY-111">
          <mxGeometry relative="1" as="geometry">
            <mxPoint x="400" y="1580" as="sourcePoint" />
            <mxPoint x="1520" y="1416" as="targetPoint" />
          </mxGeometry>
        </mxCell>
        <mxCell id="4363vgner7lVVPfS3MCY-132" style="rounded=0;orthogonalLoop=1;jettySize=auto;html=1;exitX=0.5;exitY=0;exitDx=0;exitDy=0;startArrow=none;startFill=0;strokeWidth=1;endArrow=none;endFill=0;strokeColor=#FF8000;entryX=0.5;entryY=1;entryDx=0;entryDy=0;entryPerimeter=0;exitPerimeter=0;" edge="1" parent="1" source="4363vgner7lVVPfS3MCY-44" target="4363vgner7lVVPfS3MCY-111">
          <mxGeometry relative="1" as="geometry">
            <mxPoint x="410" y="1590" as="sourcePoint" />
            <mxPoint x="1530" y="1426" as="targetPoint" />
          </mxGeometry>
        </mxCell>
        <mxCell id="4363vgner7lVVPfS3MCY-133" style="rounded=0;orthogonalLoop=1;jettySize=auto;html=1;exitX=0.5;exitY=0;exitDx=0;exitDy=0;startArrow=none;startFill=0;strokeWidth=1;endArrow=none;endFill=0;strokeColor=#FF8000;exitPerimeter=0;entryX=0.5;entryY=1;entryDx=0;entryDy=0;entryPerimeter=0;" edge="1" parent="1" source="4363vgner7lVVPfS3MCY-45" target="4363vgner7lVVPfS3MCY-111">
          <mxGeometry relative="1" as="geometry">
            <mxPoint x="420" y="1600" as="sourcePoint" />
            <mxPoint x="1510" y="1410" as="targetPoint" />
          </mxGeometry>
        </mxCell>
        <mxCell id="4363vgner7lVVPfS3MCY-134" style="rounded=0;orthogonalLoop=1;jettySize=auto;html=1;exitX=0.5;exitY=0;exitDx=0;exitDy=0;startArrow=none;startFill=0;strokeWidth=1;endArrow=none;endFill=0;strokeColor=#FF8000;entryX=0.5;entryY=1;entryDx=0;entryDy=0;entryPerimeter=0;exitPerimeter=0;" edge="1" parent="1" source="4363vgner7lVVPfS3MCY-46" target="4363vgner7lVVPfS3MCY-111">
          <mxGeometry relative="1" as="geometry">
            <mxPoint x="430" y="1610" as="sourcePoint" />
            <mxPoint x="1550" y="1446" as="targetPoint" />
          </mxGeometry>
        </mxCell>
        <mxCell id="4363vgner7lVVPfS3MCY-135" style="rounded=0;orthogonalLoop=1;jettySize=auto;html=1;exitX=0.5;exitY=0;exitDx=0;exitDy=0;startArrow=none;startFill=0;strokeWidth=1;endArrow=none;endFill=0;strokeColor=#FF8000;entryX=0.5;entryY=1;entryDx=0;entryDy=0;entryPerimeter=0;exitPerimeter=0;" edge="1" parent="1" source="4363vgner7lVVPfS3MCY-47" target="4363vgner7lVVPfS3MCY-111">
          <mxGeometry relative="1" as="geometry">
            <mxPoint x="440" y="1620" as="sourcePoint" />
            <mxPoint x="1560" y="1456" as="targetPoint" />
          </mxGeometry>
        </mxCell>
        <mxCell id="4363vgner7lVVPfS3MCY-136" style="rounded=0;orthogonalLoop=1;jettySize=auto;html=1;exitX=0.5;exitY=0;exitDx=0;exitDy=0;startArrow=none;startFill=0;strokeWidth=1;endArrow=none;endFill=0;strokeColor=#FF8000;entryX=0.5;entryY=1;entryDx=0;entryDy=0;entryPerimeter=0;exitPerimeter=0;" edge="1" parent="1" source="4363vgner7lVVPfS3MCY-48" target="4363vgner7lVVPfS3MCY-111">
          <mxGeometry relative="1" as="geometry">
            <mxPoint x="450" y="1630" as="sourcePoint" />
            <mxPoint x="1570" y="1466" as="targetPoint" />
          </mxGeometry>
        </mxCell>
        <mxCell id="4363vgner7lVVPfS3MCY-137" style="rounded=0;orthogonalLoop=1;jettySize=auto;html=1;exitX=0.5;exitY=0;exitDx=0;exitDy=0;startArrow=none;startFill=0;strokeWidth=1;endArrow=none;endFill=0;strokeColor=#FF8000;entryX=0.5;entryY=1;entryDx=0;entryDy=0;entryPerimeter=0;exitPerimeter=0;" edge="1" parent="1" source="4363vgner7lVVPfS3MCY-49" target="4363vgner7lVVPfS3MCY-111">
          <mxGeometry relative="1" as="geometry">
            <mxPoint x="460" y="1640" as="sourcePoint" />
            <mxPoint x="1580" y="1476" as="targetPoint" />
          </mxGeometry>
        </mxCell>
        <mxCell id="4363vgner7lVVPfS3MCY-138" style="rounded=0;orthogonalLoop=1;jettySize=auto;html=1;exitX=0.5;exitY=0;exitDx=0;exitDy=0;startArrow=none;startFill=0;strokeWidth=1;endArrow=none;endFill=0;strokeColor=#FF8000;entryX=0.5;entryY=1;entryDx=0;entryDy=0;entryPerimeter=0;exitPerimeter=0;" edge="1" parent="1" source="4363vgner7lVVPfS3MCY-66" target="4363vgner7lVVPfS3MCY-111">
          <mxGeometry relative="1" as="geometry">
            <mxPoint x="470" y="1650" as="sourcePoint" />
            <mxPoint x="1590" y="1486" as="targetPoint" />
          </mxGeometry>
        </mxCell>
        <mxCell id="4363vgner7lVVPfS3MCY-139" style="rounded=0;orthogonalLoop=1;jettySize=auto;html=1;exitX=0.5;exitY=0;exitDx=0;exitDy=0;startArrow=none;startFill=0;strokeWidth=1;endArrow=none;endFill=0;strokeColor=#FF8000;entryX=0.5;entryY=1;entryDx=0;entryDy=0;entryPerimeter=0;exitPerimeter=0;" edge="1" parent="1" source="4363vgner7lVVPfS3MCY-66" target="4363vgner7lVVPfS3MCY-108">
          <mxGeometry relative="1" as="geometry">
            <mxPoint x="1170" y="1580" as="sourcePoint" />
            <mxPoint x="1520" y="1416" as="targetPoint" />
          </mxGeometry>
        </mxCell>
        <mxCell id="4363vgner7lVVPfS3MCY-140" style="rounded=0;orthogonalLoop=1;jettySize=auto;html=1;exitX=0.5;exitY=0;exitDx=0;exitDy=0;startArrow=none;startFill=0;strokeWidth=1;endArrow=none;endFill=0;strokeColor=#FF8000;entryX=0.5;entryY=1;entryDx=0;entryDy=0;entryPerimeter=0;exitPerimeter=0;" edge="1" parent="1" source="4363vgner7lVVPfS3MCY-86" target="4363vgner7lVVPfS3MCY-108">
          <mxGeometry relative="1" as="geometry">
            <mxPoint x="1170" y="1580" as="sourcePoint" />
            <mxPoint x="470" y="1416" as="targetPoint" />
          </mxGeometry>
        </mxCell>
        <mxCell id="4363vgner7lVVPfS3MCY-141" style="rounded=0;orthogonalLoop=1;jettySize=auto;html=1;exitX=0.5;exitY=0;exitDx=0;exitDy=0;startArrow=none;startFill=0;strokeWidth=1;endArrow=none;endFill=0;strokeColor=#FF8000;entryX=0.5;entryY=1;entryDx=0;entryDy=0;entryPerimeter=0;exitPerimeter=0;" edge="1" parent="1" source="4363vgner7lVVPfS3MCY-87" target="4363vgner7lVVPfS3MCY-108">
          <mxGeometry relative="1" as="geometry">
            <mxPoint x="1180" y="1590" as="sourcePoint" />
            <mxPoint x="480" y="1426" as="targetPoint" />
          </mxGeometry>
        </mxCell>
        <mxCell id="4363vgner7lVVPfS3MCY-142" style="rounded=0;orthogonalLoop=1;jettySize=auto;html=1;exitX=0.5;exitY=0;exitDx=0;exitDy=0;startArrow=none;startFill=0;strokeWidth=1;endArrow=none;endFill=0;strokeColor=#FF8000;entryX=0.5;entryY=1;entryDx=0;entryDy=0;entryPerimeter=0;exitPerimeter=0;" edge="1" parent="1" source="4363vgner7lVVPfS3MCY-88" target="4363vgner7lVVPfS3MCY-108">
          <mxGeometry relative="1" as="geometry">
            <mxPoint x="1190" y="1600" as="sourcePoint" />
            <mxPoint x="490" y="1436" as="targetPoint" />
          </mxGeometry>
        </mxCell>
        <mxCell id="4363vgner7lVVPfS3MCY-143" style="rounded=0;orthogonalLoop=1;jettySize=auto;html=1;exitX=0.5;exitY=0;exitDx=0;exitDy=0;startArrow=none;startFill=0;strokeWidth=1;endArrow=none;endFill=0;strokeColor=#FF8000;entryX=0.5;entryY=1;entryDx=0;entryDy=0;entryPerimeter=0;exitPerimeter=0;" edge="1" parent="1" source="4363vgner7lVVPfS3MCY-89" target="4363vgner7lVVPfS3MCY-108">
          <mxGeometry relative="1" as="geometry">
            <mxPoint x="1200" y="1610" as="sourcePoint" />
            <mxPoint x="500" y="1446" as="targetPoint" />
          </mxGeometry>
        </mxCell>
        <mxCell id="4363vgner7lVVPfS3MCY-144" style="rounded=0;orthogonalLoop=1;jettySize=auto;html=1;exitX=0.5;exitY=0;exitDx=0;exitDy=0;startArrow=none;startFill=0;strokeWidth=1;endArrow=none;endFill=0;strokeColor=#FF8000;entryX=0.5;entryY=1;entryDx=0;entryDy=0;entryPerimeter=0;exitPerimeter=0;" edge="1" parent="1" source="4363vgner7lVVPfS3MCY-90" target="4363vgner7lVVPfS3MCY-108">
          <mxGeometry relative="1" as="geometry">
            <mxPoint x="1210" y="1620" as="sourcePoint" />
            <mxPoint x="510" y="1456" as="targetPoint" />
          </mxGeometry>
        </mxCell>
        <mxCell id="4363vgner7lVVPfS3MCY-145" style="rounded=0;orthogonalLoop=1;jettySize=auto;html=1;exitX=0.5;exitY=0;exitDx=0;exitDy=0;startArrow=none;startFill=0;strokeWidth=1;endArrow=none;endFill=0;strokeColor=#FF8000;entryX=0.5;entryY=1;entryDx=0;entryDy=0;entryPerimeter=0;exitPerimeter=0;" edge="1" parent="1" source="4363vgner7lVVPfS3MCY-91" target="4363vgner7lVVPfS3MCY-108">
          <mxGeometry relative="1" as="geometry">
            <mxPoint x="1220" y="1630" as="sourcePoint" />
            <mxPoint x="520" y="1466" as="targetPoint" />
          </mxGeometry>
        </mxCell>
        <mxCell id="4363vgner7lVVPfS3MCY-146" style="rounded=0;orthogonalLoop=1;jettySize=auto;html=1;exitX=0.5;exitY=0;exitDx=0;exitDy=0;startArrow=none;startFill=0;strokeWidth=1;endArrow=none;endFill=0;strokeColor=#FF8000;entryX=0.5;entryY=1;entryDx=0;entryDy=0;entryPerimeter=0;exitPerimeter=0;" edge="1" parent="1" source="4363vgner7lVVPfS3MCY-92" target="4363vgner7lVVPfS3MCY-108">
          <mxGeometry relative="1" as="geometry">
            <mxPoint x="1230" y="1640" as="sourcePoint" />
            <mxPoint x="530" y="1476" as="targetPoint" />
          </mxGeometry>
        </mxCell>
        <mxCell id="4363vgner7lVVPfS3MCY-147" style="rounded=0;orthogonalLoop=1;jettySize=auto;html=1;exitX=0.5;exitY=0;exitDx=0;exitDy=0;startArrow=none;startFill=0;strokeWidth=1;endArrow=none;endFill=0;strokeColor=#FF8000;entryX=0.5;entryY=1;entryDx=0;entryDy=0;entryPerimeter=0;exitPerimeter=0;" edge="1" parent="1" source="4363vgner7lVVPfS3MCY-66" target="4363vgner7lVVPfS3MCY-109">
          <mxGeometry relative="1" as="geometry">
            <mxPoint x="1240" y="1650" as="sourcePoint" />
            <mxPoint x="540" y="1486" as="targetPoint" />
          </mxGeometry>
        </mxCell>
        <mxCell id="4363vgner7lVVPfS3MCY-148" style="rounded=0;orthogonalLoop=1;jettySize=auto;html=1;exitX=0.5;exitY=0;exitDx=0;exitDy=0;startArrow=none;startFill=0;strokeWidth=1;endArrow=none;endFill=0;strokeColor=#FF8000;entryX=0.5;entryY=1;entryDx=0;entryDy=0;entryPerimeter=0;exitPerimeter=0;" edge="1" parent="1" source="4363vgner7lVVPfS3MCY-86" target="4363vgner7lVVPfS3MCY-109">
          <mxGeometry relative="1" as="geometry">
            <mxPoint x="1250" y="1660" as="sourcePoint" />
            <mxPoint x="550" y="1496" as="targetPoint" />
          </mxGeometry>
        </mxCell>
        <mxCell id="4363vgner7lVVPfS3MCY-149" style="rounded=0;orthogonalLoop=1;jettySize=auto;html=1;exitX=0.5;exitY=0;exitDx=0;exitDy=0;startArrow=none;startFill=0;strokeWidth=1;endArrow=none;endFill=0;strokeColor=#FF8000;entryX=0.5;entryY=1;entryDx=0;entryDy=0;entryPerimeter=0;exitPerimeter=0;" edge="1" parent="1" source="4363vgner7lVVPfS3MCY-87" target="4363vgner7lVVPfS3MCY-109">
          <mxGeometry relative="1" as="geometry">
            <mxPoint x="1260" y="1670" as="sourcePoint" />
            <mxPoint x="560" y="1506" as="targetPoint" />
          </mxGeometry>
        </mxCell>
        <mxCell id="4363vgner7lVVPfS3MCY-150" style="rounded=0;orthogonalLoop=1;jettySize=auto;html=1;exitX=0.5;exitY=0;exitDx=0;exitDy=0;startArrow=none;startFill=0;strokeWidth=1;endArrow=none;endFill=0;strokeColor=#FF8000;entryX=0.5;entryY=1;entryDx=0;entryDy=0;entryPerimeter=0;exitPerimeter=0;" edge="1" parent="1" source="4363vgner7lVVPfS3MCY-88" target="4363vgner7lVVPfS3MCY-109">
          <mxGeometry relative="1" as="geometry">
            <mxPoint x="1270" y="1680" as="sourcePoint" />
            <mxPoint x="570" y="1516" as="targetPoint" />
          </mxGeometry>
        </mxCell>
        <mxCell id="4363vgner7lVVPfS3MCY-151" style="rounded=0;orthogonalLoop=1;jettySize=auto;html=1;exitX=0.5;exitY=0;exitDx=0;exitDy=0;startArrow=none;startFill=0;strokeWidth=1;endArrow=none;endFill=0;strokeColor=#FF8000;entryX=0.5;entryY=1;entryDx=0;entryDy=0;entryPerimeter=0;exitPerimeter=0;" edge="1" parent="1" source="4363vgner7lVVPfS3MCY-89" target="4363vgner7lVVPfS3MCY-109">
          <mxGeometry relative="1" as="geometry">
            <mxPoint x="1280" y="1690" as="sourcePoint" />
            <mxPoint x="580" y="1526" as="targetPoint" />
          </mxGeometry>
        </mxCell>
        <mxCell id="4363vgner7lVVPfS3MCY-152" style="rounded=0;orthogonalLoop=1;jettySize=auto;html=1;exitX=0.5;exitY=0;exitDx=0;exitDy=0;startArrow=none;startFill=0;strokeWidth=1;endArrow=none;endFill=0;strokeColor=#FF8000;entryX=0.5;entryY=1;entryDx=0;entryDy=0;entryPerimeter=0;exitPerimeter=0;" edge="1" parent="1" source="4363vgner7lVVPfS3MCY-90" target="4363vgner7lVVPfS3MCY-109">
          <mxGeometry relative="1" as="geometry">
            <mxPoint x="1290" y="1700" as="sourcePoint" />
            <mxPoint x="590" y="1536" as="targetPoint" />
          </mxGeometry>
        </mxCell>
        <mxCell id="4363vgner7lVVPfS3MCY-153" style="rounded=0;orthogonalLoop=1;jettySize=auto;html=1;exitX=0.5;exitY=0;exitDx=0;exitDy=0;startArrow=none;startFill=0;strokeWidth=1;endArrow=none;endFill=0;strokeColor=#FF8000;entryX=0.5;entryY=1;entryDx=0;entryDy=0;entryPerimeter=0;exitPerimeter=0;" edge="1" parent="1" source="4363vgner7lVVPfS3MCY-91" target="4363vgner7lVVPfS3MCY-109">
          <mxGeometry relative="1" as="geometry">
            <mxPoint x="1300" y="1710" as="sourcePoint" />
            <mxPoint x="600" y="1546" as="targetPoint" />
          </mxGeometry>
        </mxCell>
        <mxCell id="4363vgner7lVVPfS3MCY-154" style="rounded=0;orthogonalLoop=1;jettySize=auto;html=1;exitX=0.5;exitY=0;exitDx=0;exitDy=0;startArrow=none;startFill=0;strokeWidth=1;endArrow=none;endFill=0;strokeColor=#FF8000;entryX=0.5;entryY=1;entryDx=0;entryDy=0;entryPerimeter=0;exitPerimeter=0;" edge="1" parent="1" source="4363vgner7lVVPfS3MCY-92" target="4363vgner7lVVPfS3MCY-109">
          <mxGeometry relative="1" as="geometry">
            <mxPoint x="1310" y="1720" as="sourcePoint" />
            <mxPoint x="610" y="1556" as="targetPoint" />
          </mxGeometry>
        </mxCell>
        <mxCell id="4363vgner7lVVPfS3MCY-155" style="rounded=0;orthogonalLoop=1;jettySize=auto;html=1;exitX=0.5;exitY=0;exitDx=0;exitDy=0;startArrow=none;startFill=0;strokeWidth=1;endArrow=none;endFill=0;strokeColor=#FF8000;exitPerimeter=0;entryX=0.5;entryY=1;entryDx=0;entryDy=0;entryPerimeter=0;" edge="1" parent="1" source="4363vgner7lVVPfS3MCY-86" target="4363vgner7lVVPfS3MCY-111">
          <mxGeometry relative="1" as="geometry">
            <mxPoint x="1170" y="1580" as="sourcePoint" />
            <mxPoint x="1510" y="1400" as="targetPoint" />
          </mxGeometry>
        </mxCell>
        <mxCell id="4363vgner7lVVPfS3MCY-156" style="rounded=0;orthogonalLoop=1;jettySize=auto;html=1;exitX=0.5;exitY=0;exitDx=0;exitDy=0;startArrow=none;startFill=0;strokeWidth=1;endArrow=none;endFill=0;strokeColor=#FF8000;exitPerimeter=0;entryX=0.5;entryY=1;entryDx=0;entryDy=0;entryPerimeter=0;" edge="1" parent="1" source="4363vgner7lVVPfS3MCY-87" target="4363vgner7lVVPfS3MCY-111">
          <mxGeometry relative="1" as="geometry">
            <mxPoint x="1230" y="1580" as="sourcePoint" />
            <mxPoint x="1520" y="1416" as="targetPoint" />
          </mxGeometry>
        </mxCell>
        <mxCell id="4363vgner7lVVPfS3MCY-157" style="rounded=0;orthogonalLoop=1;jettySize=auto;html=1;exitX=0.5;exitY=0;exitDx=0;exitDy=0;startArrow=none;startFill=0;strokeWidth=1;endArrow=none;endFill=0;strokeColor=#FF8000;exitPerimeter=0;entryX=0.5;entryY=1;entryDx=0;entryDy=0;entryPerimeter=0;" edge="1" parent="1" source="4363vgner7lVVPfS3MCY-88" target="4363vgner7lVVPfS3MCY-111">
          <mxGeometry relative="1" as="geometry">
            <mxPoint x="1240" y="1590" as="sourcePoint" />
            <mxPoint x="1530" y="1426" as="targetPoint" />
          </mxGeometry>
        </mxCell>
        <mxCell id="4363vgner7lVVPfS3MCY-158" style="rounded=0;orthogonalLoop=1;jettySize=auto;html=1;exitX=0.5;exitY=0;exitDx=0;exitDy=0;startArrow=none;startFill=0;strokeWidth=1;endArrow=none;endFill=0;strokeColor=#FF8000;exitPerimeter=0;entryX=0.5;entryY=1;entryDx=0;entryDy=0;entryPerimeter=0;" edge="1" parent="1" source="4363vgner7lVVPfS3MCY-89" target="4363vgner7lVVPfS3MCY-111">
          <mxGeometry relative="1" as="geometry">
            <mxPoint x="1250" y="1600" as="sourcePoint" />
            <mxPoint x="1540" y="1436" as="targetPoint" />
          </mxGeometry>
        </mxCell>
        <mxCell id="4363vgner7lVVPfS3MCY-159" style="rounded=0;orthogonalLoop=1;jettySize=auto;html=1;exitX=0.5;exitY=0;exitDx=0;exitDy=0;startArrow=none;startFill=0;strokeWidth=1;endArrow=none;endFill=0;strokeColor=#FF8000;exitPerimeter=0;entryX=0.5;entryY=1;entryDx=0;entryDy=0;entryPerimeter=0;" edge="1" parent="1" source="4363vgner7lVVPfS3MCY-90" target="4363vgner7lVVPfS3MCY-111">
          <mxGeometry relative="1" as="geometry">
            <mxPoint x="1260" y="1610" as="sourcePoint" />
            <mxPoint x="1550" y="1446" as="targetPoint" />
          </mxGeometry>
        </mxCell>
        <mxCell id="4363vgner7lVVPfS3MCY-160" style="rounded=0;orthogonalLoop=1;jettySize=auto;html=1;exitX=0.5;exitY=0;exitDx=0;exitDy=0;startArrow=none;startFill=0;strokeWidth=1;endArrow=none;endFill=0;strokeColor=#FF8000;exitPerimeter=0;entryX=0.5;entryY=1;entryDx=0;entryDy=0;entryPerimeter=0;" edge="1" parent="1" source="4363vgner7lVVPfS3MCY-91" target="4363vgner7lVVPfS3MCY-111">
          <mxGeometry relative="1" as="geometry">
            <mxPoint x="1270" y="1620" as="sourcePoint" />
            <mxPoint x="1560" y="1456" as="targetPoint" />
          </mxGeometry>
        </mxCell>
        <mxCell id="4363vgner7lVVPfS3MCY-161" style="rounded=0;orthogonalLoop=1;jettySize=auto;html=1;exitX=0.5;exitY=0;exitDx=0;exitDy=0;startArrow=none;startFill=0;strokeWidth=1;endArrow=none;endFill=0;strokeColor=#FF8000;exitPerimeter=0;entryX=0.5;entryY=1;entryDx=0;entryDy=0;entryPerimeter=0;" edge="1" parent="1" source="4363vgner7lVVPfS3MCY-92" target="4363vgner7lVVPfS3MCY-111">
          <mxGeometry relative="1" as="geometry">
            <mxPoint x="1280" y="1630" as="sourcePoint" />
            <mxPoint x="1570" y="1466" as="targetPoint" />
          </mxGeometry>
        </mxCell>
      </root>
    </mxGraphModel>
  </diagram>
</mxfile>
